<?xml version="1.0" encoding="UTF-8" standalone="no"?>
<!-- Created with Inkscape (http://www.inkscape.org/) -->

<svg
   width="39.611542mm"
   height="125.59415mm"
   viewBox="0 0 39.611542 125.59415"
   version="1.1"
   id="svg5"
   xml:space="preserve"
   xmlns:inkscape="http://www.inkscape.org/namespaces/inkscape"
   xmlns:sodipodi="http://sodipodi.sourceforge.net/DTD/sodipodi-0.dtd"
   xmlns="http://www.w3.org/2000/svg"
   xmlns:svg="http://www.w3.org/2000/svg"><sodipodi:namedview
     id="namedview7"
     pagecolor="#ffffff"
     bordercolor="#000000"
     borderopacity="0.25"
     inkscape:showpageshadow="2"
     inkscape:pageopacity="0.0"
     inkscape:pagecheckerboard="0"
     inkscape:deskcolor="#d1d1d1"
     inkscape:document-units="mm"
     showgrid="false" /><defs
     id="defs2" /><g
     inkscape:label="Layer 1"
     inkscape:groupmode="layer"
     id="layer1"
     transform="translate(-70.104158,-98.303983)"><path
       d="m 72.991822,222.64812 v -2.87592 l 3.767926,-22.47624 v -35.82712 l -4.113511,-6.75705 c -1.847911,-12.04236 -1.558124,-23.0222 -0.120168,-36.223 l 3.830245,-4.60093 0.946675,-8.10269 c -1.257365,-1.08564 -3.049865,-0.73527 -4.619589,-0.98271 l 0.354901,-3.87369 c 5.461217,-0.14984 10.178204,-1.300734 16.871631,-1.374012 6.693428,-0.03458 11.410418,1.116312 16.871628,1.266152 l 0.3549,3.87369 c -1.56972,0.24744 -3.36222,-0.10293 -4.61958,0.98271 l 0.94667,8.10269 3.83025,4.60093 c 1.43795,13.2008 1.72774,24.18064 -0.12017,36.223 l -4.11351,6.75705 v 35.82712 l 3.76792,22.47624 v 2.98378 H 89.909933 Z"
       id="path377"
       sodipodi:nodetypes="ccccccccccccccccccccccc" /></g></svg>
