<?xml version="1.0" encoding="UTF-8" standalone="no"?>
<!-- Created with Inkscape (http://www.inkscape.org/) -->

<svg
   width="123.78496mm"
   height="51.322899mm"
   viewBox="0 0 123.78496 51.322899"
   version="1.1"
   id="svg5"
   xml:space="preserve"
   inkscape:version="1.2.2 (b0a8486541, 2022-12-01)"
   sodipodi:docname="royal logo.svg"
   xmlns:inkscape="http://www.inkscape.org/namespaces/inkscape"
   xmlns:sodipodi="http://sodipodi.sourceforge.net/DTD/sodipodi-0.dtd"
   xmlns="http://www.w3.org/2000/svg"
   xmlns:svg="http://www.w3.org/2000/svg"><sodipodi:namedview
     id="namedview7"
     pagecolor="#ffffff"
     bordercolor="#000000"
     borderopacity="0.25"
     inkscape:showpageshadow="2"
     inkscape:pageopacity="0.0"
     inkscape:pagecheckerboard="0"
     inkscape:deskcolor="#d1d1d1"
     inkscape:document-units="mm"
     showgrid="false"
     inkscape:zoom="1.4142136"
     inkscape:cx="484.7217"
     inkscape:cy="484.7217"
     inkscape:window-width="1920"
     inkscape:window-height="1043"
     inkscape:window-x="1920"
     inkscape:window-y="0"
     inkscape:window-maximized="1"
     inkscape:current-layer="g1647" /><defs
     id="defs2"><clipPath
       clipPathUnits="userSpaceOnUse"
       id="clipPath1291"><text
         xml:space="preserve"
         style="font-size:11.2889px;font-family:Montserrat;-inkscape-font-specification:Montserrat;text-align:center;letter-spacing:-0.529167px;word-spacing:0px;text-anchor:middle;fill:#000000;fill-opacity:1;stroke:none;stroke-width:2.5;stroke-linecap:round;stroke-linejoin:round;stroke-dasharray:none;stroke-opacity:1;paint-order:markers stroke fill"
         x="135.30269"
         y="123.76986"
         id="text1295"><tspan
           sodipodi:role="line"
           id="tspan1293"
           style="stroke-width:2.5"
           x="135.0381"
           y="123.76986">ROYAL HOLLINGSHEAD</tspan></text></clipPath><clipPath
       clipPathUnits="userSpaceOnUse"
       id="clipPath1312"><text
         xml:space="preserve"
         style="font-size:11.2889px;font-family:Montserrat;-inkscape-font-specification:Montserrat;text-align:center;letter-spacing:-0.529167px;word-spacing:0px;text-anchor:middle;display:inline;fill:#000000;fill-opacity:1;stroke:none;stroke-width:2.5;stroke-linecap:round;stroke-linejoin:round;stroke-dasharray:none;stroke-opacity:1;paint-order:markers stroke fill"
         x="135.30269"
         y="123.76986"
         id="text1316"><tspan
           sodipodi:role="line"
           id="tspan1314"
           style="stroke-width:2.5"
           x="135.0381"
           y="123.76986">ROYAL HOLLINGSHEAD</tspan></text></clipPath></defs><g
     inkscape:groupmode="layer"
     id="layer4"
     inkscape:label="BG"
     style="display:none"
     transform="translate(-43.504857,-96.379308)"><rect
       style="fill:#000000;fill-opacity:1;stroke:none;stroke-width:2.5;stroke-linecap:round;stroke-linejoin:round;stroke-dasharray:none;stroke-opacity:1;paint-order:markers fill stroke"
       id="rect4161"
       width="302.30112"
       height="371.20776"
       x="-31.892412"
       y="-30.888105"
       ry="0" /></g><g
     inkscape:groupmode="layer"
     id="g1578"
     inkscape:label="V2"
     style="display:none"
     transform="translate(-43.504857,-96.379308)"><path
       style="display:inline;fill:#000000;fill-opacity:1;stroke:none;stroke-width:0.90632;stroke-linecap:round;stroke-linejoin:round;stroke-dasharray:none;stroke-opacity:1;paint-order:markers stroke fill"
       d="m 58.622703,110.26437 -0.881217,-0.55721 -6.156957,-5.50926 -10.977852,-6.941445 -2.867425,-0.04873 C 33.691303,95.44076 30.383095,93.224643 26.616815,90.226411 l -0.667678,-2.065057 -2.299342,-1.859952 c -0.576266,0.174934 -0.816202,0.792064 -1.196151,1.2251 l -1.118183,-0.859265 c 1.012189,-1.702416 1.573448,-3.37074 2.847831,-5.435879 1.286244,-2.057647 2.552799,-3.280009 3.65681,-4.924351 l 1.255704,0.641777 c -0.22831,0.528913 -0.68296,1.010273 -0.593919,1.605885 l 2.666175,1.279811 2.151883,-0.282214 c 4.32348,2.117024 7.743981,4.155549 11.075873,7.054951 l 1.273454,2.569602 10.977854,6.941431 7.617012,3.200193 0.914265,0.578102 -3.277849,5.183915 z"
       id="path1570"
       sodipodi:nodetypes="ccccccccccccccccccccccc"
       inkscape:export-filename="source4.svg"
       inkscape:export-xdpi="96"
       inkscape:export-ydpi="96"
       inkscape:label="FIXTURE" /><path
       style="display:inline;fill:#000000;fill-opacity:1;stroke:none;stroke-width:2.5;stroke-linecap:round;stroke-linejoin:round;stroke-dasharray:none;stroke-opacity:1;paint-order:markers fill stroke"
       d="M 64.000549,102.48638 190.52358,128.09767 69.883808,127.95633 60.631852,107.92036"
       id="path1572"
       inkscape:label="BEAM"
       sodipodi:nodetypes="cccc" /><path
       style="display:inline;fill:#ffffff;fill-opacity:1;stroke:none;stroke-width:2.5;stroke-linecap:round;stroke-linejoin:round;stroke-dasharray:none;stroke-opacity:1;paint-order:markers stroke fill"
       d="M 64.000549,102.48638 190.52358,128.09767 H 61.978952 l -1.199475,-20.04813"
       id="path1574"
       clip-path="url(#clipPath1291)"
       inkscape:label="ROYAL HOLL-"
       transform="translate(9.5511804,1.9516422)" /><path
       style="display:inline;fill:#000000;fill-opacity:1;stroke:none;stroke-width:2.5;stroke-linecap:round;stroke-linejoin:round;stroke-dasharray:none;stroke-opacity:1;paint-order:markers stroke fill"
       d="m 64.000549,102.48638 126.523031,25.61129 14.99151,-7.23322 -1.19947,-20.04813"
       id="path1576"
       sodipodi:nodetypes="cccc"
       clip-path="url(#clipPath1312)"
       inkscape:label="-INGSHEAD"
       transform="translate(9.5511804,1.9516422)" /></g><g
     inkscape:groupmode="layer"
     id="layer3"
     inkscape:label="V1"
     style="display:none"
     transform="translate(-43.504857,-96.379308)"><path
       style="display:inline;fill:#000000;fill-opacity:1;stroke:none;stroke-width:0.90632;stroke-linecap:round;stroke-linejoin:round;stroke-dasharray:none;stroke-opacity:1;paint-order:markers stroke fill"
       d="m 58.958242,169.34324 -0.909967,-0.5089 -6.444943,-5.16941 -11.336022,-6.33967 -2.865884,0.10588 c -4.137301,-1.54622 -7.560143,-3.58081 -11.482546,-6.37169 l -0.778008,-2.02607 -2.396247,-1.73332 c -0.566,0.20574 -0.772326,0.83491 -1.128382,1.28779 l -1.162871,-0.79775 c 0.918962,-1.75449 1.389487,-3.45064 2.550712,-5.58147 1.173472,-2.12398 2.372304,-3.41283 3.386084,-5.11428 l 1.288469,0.57316 c -0.199471,0.54045 -0.627516,1.04562 -0.506503,1.63556 l 2.731279,1.13425 2.133544,-0.39778 c 4.431299,1.88092 7.956699,3.73213 11.440019,6.44773 l 1.410098,2.49723 11.336023,6.33967 7.778423,2.785 0.944094,0.52798 -2.993685,5.35305 z"
       id="path377"
       sodipodi:nodetypes="ccccccccccccccccccccccc"
       inkscape:export-filename="source4.svg"
       inkscape:export-xdpi="96"
       inkscape:export-ydpi="96"
       inkscape:label="FIXTURE" /></g><g
     inkscape:groupmode="layer"
     id="g1647"
     inkscape:label="V4"
     style="display:inline"
     transform="translate(-47.611907,-86.372153)"><path
       style="display:inline;fill:#000000;fill-opacity:1;stroke:none;stroke-width:0.45837;stroke-linecap:round;stroke-linejoin:round;stroke-dasharray:none;stroke-opacity:1;paint-order:markers stroke fill"
       d="m 65.103377,105.09483 -0.413405,-0.32732 -2.802047,-3.09971 -5.15003,-4.077596 -1.439475,-0.177733 c -1.941365,-1.104945 -3.4867,-2.39625 -5.220614,-4.105371 l -0.225438,-1.074232 -1.05699,-1.058271 c -0.299162,0.05718 -0.452808,0.354728 -0.667031,0.552206 l -0.516438,-0.491892 c 0.600019,-0.802088 0.971436,-1.611125 1.7227,-2.581621 0.756828,-0.966095 1.45912,-1.513162 2.102215,-2.281137 l 0.597222,0.389862 c -0.143085,0.2538 -0.397459,0.471589 -0.384505,0.775891 l 1.272476,0.78611 1.097301,-0.02694 c 2.061229,1.295722 3.672528,2.503711 5.193261,4.139917 l 0.503132,1.360347 5.150032,4.077588 3.659723,2.016454 0.428909,0.339598 -1.925499,2.43193 z"
       id="path1631"
       sodipodi:nodetypes="ccccccccccccccccccccccc"
       inkscape:export-filename="../Projects/royaljh/public/logo.svg"
       inkscape:export-xdpi="96"
       inkscape:export-ydpi="96"
       inkscape:label="FIXTURE" /><path
       style="display:inline;fill:#000000;fill-opacity:1;stroke:none;stroke-width:2.5;stroke-linecap:round;stroke-linejoin:round;stroke-dasharray:none;stroke-opacity:1;paint-order:markers fill stroke"
       d="m 68.201835,101.54484 78.835655,26.1587 -70.369024,0.25279 -10.505679,-23.80598"
       id="path1633"
       inkscape:label="BEAM"
       sodipodi:nodetypes="cccc" /><text
       xml:space="preserve"
       style="font-size:11.2889px;font-family:Montserrat;-inkscape-font-specification:Montserrat;text-align:center;letter-spacing:-0.529167px;word-spacing:0px;text-anchor:middle;display:inline;fill:#ffffff;fill-opacity:1;stroke:none;stroke-width:2.5;stroke-linecap:round;stroke-linejoin:round;stroke-dasharray:none;stroke-opacity:1;paint-order:markers stroke fill"
       x="100.29228"
       y="126.52995"
       id="text1645"
       inkscape:label="ROYAL"><tspan
         sodipodi:role="line"
         id="tspan1643"
         style="font-style:normal;font-variant:normal;font-weight:900;font-stretch:normal;font-family:Montserrat;-inkscape-font-specification:'Montserrat Heavy';fill:#ffffff;fill-opacity:1;stroke-width:2.5"
         x="100.0277"
         y="126.52995">ROYAL</tspan></text><text
       xml:space="preserve"
       style="font-size:11.2889px;font-family:Montserrat;-inkscape-font-specification:Montserrat;text-align:center;letter-spacing:-0.529167px;word-spacing:0px;text-anchor:middle;display:inline;fill:#000000;fill-opacity:1;stroke:none;stroke-width:2.5;stroke-linecap:round;stroke-linejoin:round;stroke-dasharray:none;stroke-opacity:1;paint-order:markers fill stroke"
       x="126.23349"
       y="137.51443"
       id="text1753"
       inkscape:label="HOLLINGSHEAD"><tspan
         sodipodi:role="line"
         id="tspan1751"
         style="font-style:normal;font-variant:normal;font-weight:900;font-stretch:normal;font-family:Montserrat;-inkscape-font-specification:'Montserrat Heavy';fill:#000000;fill-opacity:1;stroke-width:2.5"
         x="125.96891"
         y="137.51443">HOLLINGSHEAD</tspan></text></g></svg>
