<?xml version="1.0" encoding="UTF-8" standalone="no"?>
<!-- Created with Inkscape (http://www.inkscape.org/) -->

<svg
   width="128.39345mm"
   height="54.795364mm"
   viewBox="0 0 128.39345 54.795364"
   version="1.1"
   id="svg5"
   xml:space="preserve"
   xmlns="http://www.w3.org/2000/svg"
   xmlns:svg="http://www.w3.org/2000/svg"><defs
     id="defs2"><clipPath
       clipPathUnits="userSpaceOnUse"
       id="clipPath1291"><text
         xml:space="preserve"
         style="font-size:11.2889px;font-family:Montserrat;-inkscape-font-specification:Montserrat;text-align:center;letter-spacing:-0.529167px;word-spacing:0px;text-anchor:middle;fill:#000000;fill-opacity:1;stroke:none;stroke-width:2.5;stroke-linecap:round;stroke-linejoin:round;stroke-dasharray:none;stroke-opacity:1;paint-order:markers stroke fill"
         x="135.30269"
         y="123.76986"
         id="text1295"><tspan
           id="tspan1293"
           style="stroke-width:2.5"
           x="135.0381"
           y="123.76986">ROYAL HOLLINGSHEAD</tspan></text></clipPath><clipPath
       clipPathUnits="userSpaceOnUse"
       id="clipPath1312"><text
         xml:space="preserve"
         style="font-size:11.2889px;font-family:Montserrat;-inkscape-font-specification:Montserrat;text-align:center;letter-spacing:-0.529167px;word-spacing:0px;text-anchor:middle;display:inline;fill:#000000;fill-opacity:1;stroke:none;stroke-width:2.5;stroke-linecap:round;stroke-linejoin:round;stroke-dasharray:none;stroke-opacity:1;paint-order:markers stroke fill"
         x="135.30269"
         y="123.76986"
         id="text1316"><tspan
           id="tspan1314"
           style="stroke-width:2.5"
           x="135.0381"
           y="123.76986">ROYAL HOLLINGSHEAD</tspan></text></clipPath></defs><g
     id="layer4"
     style="display:none"
     transform="translate(-38.896386,-92.906842)"><rect
       style="fill:#000000;fill-opacity:1;stroke:none;stroke-width:2.5;stroke-linecap:round;stroke-linejoin:round;stroke-dasharray:none;stroke-opacity:1;paint-order:markers fill stroke"
       id="rect4161"
       width="302.30112"
       height="371.20776"
       x="-31.892412"
       y="-30.888105"
       ry="0" /></g><g
     id="g1578"
     style="display:none"
     transform="translate(-38.896386,-92.906842)"><path
       style="display:inline;fill:#000000;fill-opacity:1;stroke:none;stroke-width:0.90632;stroke-linecap:round;stroke-linejoin:round;stroke-dasharray:none;stroke-opacity:1;paint-order:markers stroke fill"
       d="m 58.622703,110.26437 -0.881217,-0.55721 -6.156957,-5.50926 -10.977852,-6.941445 -2.867425,-0.04873 C 33.691303,95.44076 30.383095,93.224643 26.616815,90.226411 l -0.667678,-2.065057 -2.299342,-1.859952 c -0.576266,0.174934 -0.816202,0.792064 -1.196151,1.2251 l -1.118183,-0.859265 c 1.012189,-1.702416 1.573448,-3.37074 2.847831,-5.435879 1.286244,-2.057647 2.552799,-3.280009 3.65681,-4.924351 l 1.255704,0.641777 c -0.22831,0.528913 -0.68296,1.010273 -0.593919,1.605885 l 2.666175,1.279811 2.151883,-0.282214 c 4.32348,2.117024 7.743981,4.155549 11.075873,7.054951 l 1.273454,2.569602 10.977854,6.941431 7.617012,3.200193 0.914265,0.578102 -3.277849,5.183915 z"
       id="path1570" /><path
       style="display:inline;fill:#000000;fill-opacity:1;stroke:none;stroke-width:2.5;stroke-linecap:round;stroke-linejoin:round;stroke-dasharray:none;stroke-opacity:1;paint-order:markers fill stroke"
       d="M 64.000549,102.48638 190.52358,128.09767 69.883808,127.95633 60.631852,107.92036"
       id="path1572" /><path
       style="display:inline;fill:#ffffff;fill-opacity:1;stroke:none;stroke-width:2.5;stroke-linecap:round;stroke-linejoin:round;stroke-dasharray:none;stroke-opacity:1;paint-order:markers stroke fill"
       d="M 64.000549,102.48638 190.52358,128.09767 H 61.978952 l -1.199475,-20.04813"
       id="path1574"
       clip-path="url(#clipPath1291)"
       transform="translate(9.5511804,1.9516422)" /><path
       style="display:inline;fill:#000000;fill-opacity:1;stroke:none;stroke-width:2.5;stroke-linecap:round;stroke-linejoin:round;stroke-dasharray:none;stroke-opacity:1;paint-order:markers stroke fill"
       d="m 64.000549,102.48638 126.523031,25.61129 14.99151,-7.23322 -1.19947,-20.04813"
       id="path1576"
       clip-path="url(#clipPath1312)"
       transform="translate(9.5511804,1.9516422)" /></g><g
     id="layer3"
     style="display:none"
     transform="translate(-38.896386,-92.906842)"><path
       style="display:inline;fill:#000000;fill-opacity:1;stroke:none;stroke-width:0.90632;stroke-linecap:round;stroke-linejoin:round;stroke-dasharray:none;stroke-opacity:1;paint-order:markers stroke fill"
       d="m 58.958242,169.34324 -0.909967,-0.5089 -6.444943,-5.16941 -11.336022,-6.33967 -2.865884,0.10588 c -4.137301,-1.54622 -7.560143,-3.58081 -11.482546,-6.37169 l -0.778008,-2.02607 -2.396247,-1.73332 c -0.566,0.20574 -0.772326,0.83491 -1.128382,1.28779 l -1.162871,-0.79775 c 0.918962,-1.75449 1.389487,-3.45064 2.550712,-5.58147 1.173472,-2.12398 2.372304,-3.41283 3.386084,-5.11428 l 1.288469,0.57316 c -0.199471,0.54045 -0.627516,1.04562 -0.506503,1.63556 l 2.731279,1.13425 2.133544,-0.39778 c 4.431299,1.88092 7.956699,3.73213 11.440019,6.44773 l 1.410098,2.49723 11.336023,6.33967 7.778423,2.785 0.944094,0.52798 -2.993685,5.35305 z"
       id="path377" /></g><g
     id="g1647"
     style="display:none"
     transform="translate(-43.003436,-82.899687)"><path
       style="display:inline;fill:#000000;fill-opacity:1;stroke:none;stroke-width:0.55656;stroke-linecap:round;stroke-linejoin:round;stroke-dasharray:none;stroke-opacity:1;paint-order:markers stroke fill"
       d="m 64.241847,105.63306 -0.501963,-0.39744 -3.402289,-3.76371 -6.253246,-4.951086 -1.747833,-0.215806 c -2.357236,-1.341642 -4.233605,-2.909564 -6.33895,-4.984805 l -0.273731,-1.30435 -1.283414,-1.284969 c -0.363247,0.06943 -0.549806,0.430716 -0.809919,0.670497 l -0.627067,-0.597262 c 0.728552,-0.973908 1.179533,-1.956254 2.091729,-3.134645 0.918952,-1.173048 1.771686,-1.837305 2.552542,-2.769792 l 0.725156,0.473376 c -0.173736,0.308168 -0.482601,0.572611 -0.466872,0.942099 l 1.545061,0.954508 1.33236,-0.03271 c 2.502776,1.573285 4.45924,3.040044 6.305738,5.026751 l 0.610911,1.651755 6.253249,4.95107 4.443692,2.448415 0.520788,0.41234 -2.337971,2.952884 z"
       id="path1631" /><path
       style="display:inline;fill:#000000;fill-opacity:1;stroke:none;stroke-width:2.5;stroke-linecap:round;stroke-linejoin:round;stroke-dasharray:none;stroke-opacity:1;paint-order:markers fill stroke"
       d="m 68.711556,100.88743 78.325934,26.81611 -70.369024,0.25279 -11.364018,-22.84759"
       id="path1633" /><text
       xml:space="preserve"
       style="font-size:11.2889px;font-family:Montserrat;-inkscape-font-specification:Montserrat;text-align:center;letter-spacing:-0.529167px;word-spacing:0px;text-anchor:middle;display:inline;fill:#ffffff;fill-opacity:1;stroke:none;stroke-width:2.5;stroke-linecap:round;stroke-linejoin:round;stroke-dasharray:none;stroke-opacity:1;paint-order:markers stroke fill"
       x="100.29228"
       y="126.52995"
       id="text1645"><tspan
         id="tspan1643"
         style="font-style:normal;font-variant:normal;font-weight:900;font-stretch:normal;font-family:Montserrat;-inkscape-font-specification:'Montserrat Heavy';fill:#ffffff;fill-opacity:1;stroke-width:2.5"
         x="100.0277"
         y="126.52995">ROYAL</tspan></text><text
       xml:space="preserve"
       style="font-size:11.2889px;font-family:Montserrat;-inkscape-font-specification:Montserrat;text-align:center;letter-spacing:-0.529167px;word-spacing:0px;text-anchor:middle;display:inline;fill:#000000;fill-opacity:1;stroke:none;stroke-width:2.5;stroke-linecap:round;stroke-linejoin:round;stroke-dasharray:none;stroke-opacity:1;paint-order:markers fill stroke"
       x="126.23349"
       y="137.51443"
       id="text1753"><tspan
         id="tspan1751"
         style="font-style:normal;font-variant:normal;font-weight:900;font-stretch:normal;font-family:Montserrat;-inkscape-font-specification:'Montserrat Heavy';fill:#000000;fill-opacity:1;stroke-width:2.5"
         x="125.96891"
         y="137.51443">HOLLINGSHEAD</tspan></text></g><g
     id="g4105"
     style="display:none"
     transform="translate(-43.081715,-137.43895)"><text
       xml:space="preserve"
       style="font-size:11.2889px;font-family:Montserrat;-inkscape-font-specification:Montserrat;text-align:center;letter-spacing:-0.529167px;word-spacing:0px;text-anchor:middle;fill:#000000;fill-opacity:1;stroke:none;stroke-width:2.5;stroke-linecap:round;stroke-linejoin:round;stroke-dasharray:none;stroke-opacity:1;paint-order:markers fill stroke"
       x="126.23349"
       y="137.51443"
       id="text4103"><tspan
         id="tspan4101"
         style="font-style:normal;font-variant:normal;font-weight:900;font-stretch:normal;font-family:Montserrat;-inkscape-font-specification:'Montserrat Heavy';fill:#000000;fill-opacity:1;stroke-width:2.5"
         x="125.96891"
         y="137.51443">HOLLINGSHEAD</tspan></text></g><g
     id="g333"
     style="display:inline"
     transform="translate(-43.003436,-82.899687)"><path
       style="display:inline;fill:#000000;fill-opacity:1;stroke:none;stroke-width:0.55656;stroke-linecap:round;stroke-linejoin:round;stroke-dasharray:none;stroke-opacity:1;paint-order:markers stroke fill"
       d="m 64.241847,105.63306 -0.501963,-0.39744 -3.402289,-3.76371 -6.253246,-4.951086 -1.747833,-0.215806 c -2.357236,-1.341642 -4.233605,-2.909564 -6.33895,-4.984805 l -0.273731,-1.30435 -1.283414,-1.284969 c -0.363247,0.06943 -0.549806,0.430716 -0.809919,0.670497 l -0.627067,-0.597262 c 0.728552,-0.973908 1.179533,-1.956254 2.091729,-3.134645 0.918952,-1.173048 1.771686,-1.837305 2.552542,-2.769792 l 0.725156,0.473376 c -0.173736,0.308168 -0.482601,0.572611 -0.466872,0.942099 l 1.545061,0.954508 1.33236,-0.03271 c 2.502776,1.573285 4.45924,3.040044 6.305738,5.026751 l 0.610911,1.651755 6.253249,4.95107 4.443692,2.448415 0.520788,0.41234 -2.337971,2.952884 z"
       id="path321" /><path
       style="display:inline;fill:#000000;fill-opacity:1;stroke:none;stroke-width:2.5;stroke-linecap:round;stroke-linejoin:round;stroke-dasharray:none;stroke-opacity:1;paint-order:markers fill stroke"
       d="m 68.711556,100.88743 78.325934,26.81611 -70.369024,0.25279 -11.364018,-22.84759"
       id="path323" /><g
       aria-label="ROYAL"
       id="text327"
       style="font-size:11.2889px;font-family:Montserrat;-inkscape-font-specification:Montserrat;text-align:center;letter-spacing:-0.529167px;word-spacing:0px;text-anchor:middle;display:inline;fill:#ffffff;stroke-width:2.5;stroke-linecap:round;stroke-linejoin:round;paint-order:markers stroke fill"><path
         d="m 81.386201,126.52995 v -7.90223 h 3.804359 q 1.106313,0 1.907825,0.36125 0.8128,0.36124 1.253068,1.03858 0.440267,0.66604 0.440267,1.58044 0,0.9144 -0.440267,1.58045 -0.440268,0.65475 -1.253068,1.00471 -0.801512,0.34996 -1.907825,0.34996 h -2.325513 l 1.185335,-1.09503 v 3.08187 z m 4.730049,0 -1.941691,-2.87867 h 2.822226 l 1.964268,2.87867 z m -2.065868,-2.78836 -1.185335,-1.20791 h 2.15618 q 0.553156,0 0.812801,-0.24835 0.270933,-0.24836 0.270933,-0.67734 0,-0.42898 -0.270933,-0.67733 -0.259645,-0.24836 -0.812801,-0.24836 h -2.15618 l 1.185335,-1.20791 z"
         style="font-weight:900;-inkscape-font-specification:'Montserrat Heavy'"
         id="path335" /><path
         d="m 93.4103,126.71058 q -0.959556,0 -1.783646,-0.3048 -0.812801,-0.30481 -1.411112,-0.85796 -0.598312,-0.56445 -0.936979,-1.3208 -0.327378,-0.75636 -0.327378,-1.64818 0,-0.90311 0.327378,-1.64818 0.338667,-0.75636 0.936979,-1.30951 0.598311,-0.56445 1.411112,-0.86925 0.82409,-0.3048 1.783646,-0.3048 0.970846,0 1.783647,0.3048 0.812801,0.3048 1.411112,0.86925 0.598312,0.55315 0.92569,1.30951 0.338667,0.74507 0.338667,1.64818 0,0.89182 -0.338667,1.64818 -0.327378,0.75635 -0.92569,1.3208 -0.598311,0.55315 -1.411112,0.85796 -0.812801,0.3048 -1.783647,0.3048 z m 0,-2.15618 q 0.372534,0 0.688623,-0.13547 0.327379,-0.13547 0.564445,-0.38382 0.248356,-0.25965 0.383823,-0.62089 0.135467,-0.37254 0.135467,-0.83538 0,-0.46285 -0.135467,-0.82409 -0.135467,-0.37254 -0.383823,-0.62089 -0.237066,-0.25965 -0.564445,-0.39511 -0.316089,-0.13547 -0.688623,-0.13547 -0.372533,0 -0.699911,0.13547 -0.31609,0.13546 -0.564445,0.39511 -0.237067,0.24835 -0.372534,0.62089 -0.135467,0.36124 -0.135467,0.82409 0,0.46284 0.135467,0.83538 0.135467,0.36124 0.372534,0.62089 0.248355,0.24835 0.564445,0.38382 0.327378,0.13547 0.699911,0.13547 z"
         style="font-weight:900;-inkscape-font-specification:'Montserrat Heavy'"
         id="path337" /><path
         d="m 100.00442,126.52995 v -3.46569 l 0.6096,1.59174 -3.589873,-6.02828 h 2.810937 l 2.427116,4.12045 h -1.63689 l 2.44969,-4.12045 h 2.57387 l -3.5673,6.02828 0.58703,-1.59174 v 3.46569 z"
         style="font-weight:900;-inkscape-font-specification:'Montserrat Heavy'"
         id="path339" /><path
         d="m 104.0924,126.52995 3.4544,-7.90223 h 2.61903 l 3.4544,7.90223 h -2.75449 l -2.55129,-6.63787 h 1.03858 l -2.55129,6.63787 z m 2.05458,-1.37724 0.67733,-1.91912 h 3.63503 l 0.67733,1.91912 z"
         style="font-weight:900;-inkscape-font-specification:'Montserrat Heavy'"
         id="path341" /><path
         d="m 113.52004,126.52995 v -7.90223 h 2.66418 v 5.83636 h 3.56729 v 2.06587 z"
         style="font-weight:900;-inkscape-font-specification:'Montserrat Heavy'"
         id="path343" /></g><g
       aria-label="HOLLINGSHEAD"
       id="text331"
       style="font-size:11.2889px;font-family:Montserrat;-inkscape-font-specification:Montserrat;text-align:center;letter-spacing:-0.529167px;word-spacing:0px;text-anchor:middle;display:inline;stroke-width:2.5;stroke-linecap:round;stroke-linejoin:round;paint-order:markers fill stroke"><path
         d="m 86.511361,129.6122 h 2.664181 v 7.90223 h -2.664181 z m -2.46098,7.90223 H 81.3862 v -7.90223 h 2.664181 z m 2.641603,-2.91253 h -2.822226 v -2.19005 h 2.822226 z"
         style="font-weight:900;-inkscape-font-specification:'Montserrat Heavy'"
         id="path346" /><path
         d="m 94.076345,137.69506 q -0.959557,0 -1.783646,-0.3048 -0.812801,-0.3048 -1.411113,-0.85796 -0.598312,-0.56444 -0.936979,-1.3208 -0.327378,-0.75636 -0.327378,-1.64818 0,-0.90311 0.327378,-1.64818 0.338667,-0.75636 0.936979,-1.30951 0.598312,-0.56445 1.411113,-0.86925 0.824089,-0.3048 1.783646,-0.3048 0.970845,0 1.783646,0.3048 0.812801,0.3048 1.411113,0.86925 0.598312,0.55315 0.92569,1.30951 0.338667,0.74507 0.338667,1.64818 0,0.89182 -0.338667,1.64818 -0.327378,0.75636 -0.92569,1.3208 -0.598312,0.55316 -1.411113,0.85796 -0.812801,0.3048 -1.783646,0.3048 z m 0,-2.15618 q 0.372534,0 0.688623,-0.13547 0.327378,-0.13547 0.564445,-0.38382 0.248356,-0.25965 0.383823,-0.62089 0.135466,-0.37254 0.135466,-0.83538 0,-0.46285 -0.135466,-0.82409 -0.135467,-0.37253 -0.383823,-0.62089 -0.237067,-0.25964 -0.564445,-0.39511 -0.316089,-0.13547 -0.688623,-0.13547 -0.372534,0 -0.699912,0.13547 -0.316089,0.13547 -0.564445,0.39511 -0.237067,0.24836 -0.372534,0.62089 -0.135466,0.36124 -0.135466,0.82409 0,0.46284 0.135466,0.83538 0.135467,0.36124 0.372534,0.62089 0.248356,0.24835 0.564445,0.38382 0.327378,0.13547 0.699912,0.13547 z"
         style="font-weight:900;-inkscape-font-specification:'Montserrat Heavy'"
         id="path348" /><path
         d="m 98.977135,137.51443 v -7.90223 h 2.664185 v 5.83637 h 3.56729 v 2.06586 z"
         style="font-weight:900;-inkscape-font-specification:'Montserrat Heavy'"
         id="path350" /><path
         d="m 105.41323,137.51443 v -7.90223 h 2.66418 v 5.83637 h 3.56729 v 2.06586 z"
         style="font-weight:900;-inkscape-font-specification:'Montserrat Heavy'"
         id="path352" /><path
         d="m 111.84932,137.51443 v -7.90223 h 2.66418 v 7.90223 z"
         style="font-weight:900;-inkscape-font-specification:'Montserrat Heavy'"
         id="path354" /><path
         d="m 115.27127,137.51443 v -7.90223 h 2.19004 l 4.01885,4.80908 h -1.016 v -4.80908 h 2.59645 v 7.90223 h -2.19005 l -4.01885,-4.80907 h 1.016 v 4.80907 z"
         style="font-weight:900;-inkscape-font-specification:'Montserrat Heavy'"
         id="path356" /><path
         d="m 127.91626,137.69506 q -0.95956,0 -1.77236,-0.29351 -0.80151,-0.3048 -1.39982,-0.85796 -0.58703,-0.55316 -0.9144,-1.30951 -0.32738,-0.75636 -0.32738,-1.67076 0,-0.9144 0.32738,-1.67076 0.32737,-0.75635 0.92569,-1.30951 0.59831,-0.55316 1.41111,-0.84667 0.82409,-0.3048 1.80622,-0.3048 1.17405,0 2.08845,0.39511 0.92569,0.39512 1.524,1.12889 l -1.70462,1.50143 q -0.37254,-0.42898 -0.8128,-0.64347 -0.42898,-0.22578 -0.95956,-0.22578 -0.44027,0 -0.80151,0.13547 -0.34996,0.13547 -0.59832,0.39511 -0.24835,0.25965 -0.38382,0.62089 -0.13546,0.36124 -0.13546,0.82409 0,0.44027 0.13546,0.8128 0.13547,0.36125 0.38382,0.62089 0.24836,0.25964 0.58703,0.4064 0.34995,0.13547 0.77893,0.13547 0.45156,0 0.88054,-0.14676 0.42897,-0.15804 0.9144,-0.53058 l 1.49013,1.82881 q -0.72249,0.48542 -1.64818,0.74506 -0.92569,0.25965 -1.79493,0.25965 z m 1.12889,-1.34338 v -3.00285 h 2.31422 v 3.34152 z"
         style="font-weight:900;-inkscape-font-specification:'Montserrat Heavy'"
         id="path358" /><path
         d="m 134.91678,137.69506 q -0.99342,0 -1.91911,-0.22578 -0.92569,-0.22578 -1.52401,-0.58702 l 0.85796,-1.94169 q 0.56445,0.32737 1.25307,0.53057 0.69991,0.19192 1.35467,0.19192 0.38382,0 0.59831,-0.0452 0.22578,-0.0564 0.32738,-0.14676 0.1016,-0.1016 0.1016,-0.23706 0,-0.21449 -0.23707,-0.33867 -0.23707,-0.12418 -0.63218,-0.2032 -0.38382,-0.0903 -0.84667,-0.18062 -0.46284,-0.1016 -0.93698,-0.25965 -0.46284,-0.15804 -0.85795,-0.41769 -0.38382,-0.25964 -0.62089,-0.67733 -0.23707,-0.42898 -0.23707,-1.06116 0,-0.73378 0.4064,-1.33209 0.41769,-0.6096 1.23049,-0.97084 0.82409,-0.36125 2.04329,-0.36125 0.80152,0 1.58045,0.16934 0.77893,0.16933 1.39982,0.51929 l -0.80151,1.9304 q -0.58702,-0.29351 -1.14018,-0.44027 -0.54187,-0.14676 -1.06115,-0.14676 -0.38383,0 -0.60961,0.0677 -0.22577,0.0677 -0.32737,0.18062 -0.0903,0.11289 -0.0903,0.24836 0,0.2032 0.23706,0.32737 0.23707,0.11289 0.62089,0.19192 0.39511,0.079 0.85796,0.16933 0.47413,0.0903 0.93698,0.24835 0.46284,0.15805 0.84666,0.41769 0.39512,0.25965 0.63218,0.67734 0.23707,0.41769 0.23707,1.03858 0,0.72249 -0.41769,1.33209 -0.4064,0.59831 -1.2192,0.97084 -0.8128,0.36125 -2.04329,0.36125 z"
         style="font-weight:900;-inkscape-font-specification:'Montserrat Heavy'"
         id="path360" /><path
         d="m 143.98317,129.6122 h 2.66418 v 7.90223 h -2.66418 z m -2.46098,7.90223 h -2.66418 v -7.90223 h 2.66418 z m 2.6416,-2.91253 h -2.82222 v -2.19005 h 2.82222 z"
         style="font-weight:900;-inkscape-font-specification:'Montserrat Heavy'"
         id="path362" /><path
         d="m 149.84353,132.54732 h 3.52214 v 1.91911 h -3.52214 z m 0.18062,2.95769 h 3.95112 v 2.00942 h -6.57014 v -7.90223 h 6.42338 v 2.00943 h -3.80436 z"
         style="font-weight:900;-inkscape-font-specification:'Montserrat Heavy'"
         id="path364" /><path
         d="m 153.61544,137.51443 3.4544,-7.90223 h 2.61903 l 3.4544,7.90223 h -2.75449 l -2.55129,-6.63787 h 1.03858 l -2.55129,6.63787 z m 2.05458,-1.37724 0.67733,-1.91911 h 3.63503 l 0.67733,1.91911 z"
         style="font-weight:900;-inkscape-font-specification:'Montserrat Heavy'"
         id="path366" /><path
         d="m 163.04308,137.51443 v -7.90223 h 3.89467 q 1.32081,0 2.32552,0.48543 1.00471,0.47413 1.56915,1.35467 0.56445,0.88053 0.56445,2.09973 0,1.23049 -0.56445,2.12231 -0.56444,0.88054 -1.56915,1.36596 -1.00471,0.47413 -2.32552,0.47413 z m 2.66418,-2.07715 h 1.11761 q 0.56444,0 0.98213,-0.21449 0.42898,-0.21449 0.66604,-0.63218 0.23707,-0.42898 0.23707,-1.03858 0,-0.59831 -0.23707,-1.016 -0.23706,-0.41769 -0.66604,-0.63218 -0.41769,-0.21449 -0.98213,-0.21449 h -1.11761 z"
         style="font-weight:900;-inkscape-font-specification:'Montserrat Heavy'"
         id="path368" /></g></g></svg>
